<svg width="96" height="96" xmlns="http://www.w3.org/2000/svg" xmlns:xlink="http://www.w3.org/1999/xlink" xml:space="preserve" overflow="hidden"><g transform="translate(-361 -87)"><path d="M439 107 422 107 422 102C422 98.1 418.9 95 415 95L403 95C399.1 95 396 98.1 396 102L396 107 379 107C376.8 107 375 108.8 375 111L375 115 443 115 443 111C443 108.8 441.2 107 439 107ZM402 102C402 101.4 402.4 101 403 101L415 101C415.6 101 416 101.4 416 102L416 107 402 107 402 102Z" fill="#E73247"/><path d="M381 171C381 173.2 382.8 175 385 175L433 175C435.2 175 437 173.2 437 171L437 119 381 119 381 171ZM422 125 428 125 428 169 422 169 422 125ZM406 125 412 125 412 169 406 169 406 125ZM390 125 396 125 396 169 390 169 390 125Z" fill="#E73247"/></g></svg>